<mxfile host="app.diagrams.net" modified="2024-08-08T12:40:53.898Z" agent="Mozilla/5.0 (Windows NT 10.0; Win64; x64) AppleWebKit/537.36 (KHTML, like Gecko) Chrome/127.0.0.0 Safari/537.36" version="24.4.4" etag="jlZG9rEo10EAYTJWGiuO" type="github">
  <diagram name="Trang-1" id="OdE6HgsOUsmtkwhssUaE">
    <mxGraphModel>
      <root>
        <mxCell id="0" />
        <mxCell id="1" parent="0" />
      </root>
    </mxGraphModel>
  </diagram>
</mxfile>
